<?xml version="1.0" standalone="no"?>
<!DOCTYPE svg PUBLIC "-//W3C//DTD SVG 20010904//EN"
 "http://www.w3.org/TR/2001/REC-SVG-20010904/DTD/svg10.dtd">
<svg version="1.0" xmlns="http://www.w3.org/2000/svg"
 width="111.000000pt" height="111.000000pt" viewBox="0 0 111.000000 111.000000"
 preserveAspectRatio="xMidYMid meet">
<metadata>
Created by potrace 1.14, written by Peter Selinger 2001-2017
</metadata>
<g transform="translate(0.000000,111.000000) scale(0.100000,-0.100000)"
fill="#000000" stroke="none">
<path d="M176 951 c-8 -12 -136 -645 -136 -670 0 -19 6 -21 69 -21 78 0 67
-14 92 118 l12 63 61 -3 61 -3 15 -85 15 -85 64 -3 c35 -2 68 1 73 6 9 9 -119
659 -135 680 -11 14 -183 17 -191 3z m133 -368 c1 -20 -4 -23 -39 -23 -22 0
-40 1 -40 3 0 2 39 230 41 237 2 9 38 -194 38 -217z"/>
<path d="M565 947 c-3 -6 -4 -163 -3 -347 l3 -335 65 0 65 0 3 133 c3 130 3
132 26 132 20 0 27 -12 61 -122 21 -68 42 -129 48 -135 13 -18 137 -18 137 0
0 7 -22 79 -49 160 -40 119 -47 149 -36 154 8 3 24 20 35 38 17 27 20 49 20
136 0 120 -16 160 -75 185 -46 19 -293 20 -300 1z m232 -113 c16 -21 17 -117
3 -145 -8 -15 -22 -19 -60 -19 l-50 0 0 88 c0 49 3 92 8 96 12 13 86 -2 99
-20z"/>
</g>
</svg>
